<?xml version="1.0" encoding="utf-8"?>
<!-- Generator: Adobe Illustrator 26.5.3, SVG Export Plug-In . SVG Version: 6.00 Build 0)  -->
<svg version="1.1" id="Layer_1" xmlns="http://www.w3.org/2000/svg" xmlns:xlink="http://www.w3.org/1999/xlink" x="0px" y="0px"
	 viewBox="0 0 737.8 110.1" style="enable-background:new 0 0 737.8 110.1;" xml:space="preserve">
<style type="text/css">
	.st0{fill:#FFFFFF;}
	.st1{fill:#709C49;}
	.st2{fill:#6DABE4;}
</style>
<g>
	<g>
		<path class="st0" d="M131.4,87.9c-3.1-0.6-5.6-1.8-7.4-3.4c-1.8-1.7-3.1-3.9-3.9-6.7c-0.8-2.8-1.1-6.4-1.1-10.7v-6.6
			c0-5.1,0.4-9.2,1.2-12.3c0.8-3.1,2.1-5.5,4-7.2s4.4-2.8,7.6-3.4c3.2-0.6,7.2-0.9,12-0.9h11.1c5.1,0,9.3,0.2,12.6,0.7
			s5.9,1.4,7.8,2.7c1.9,1.3,3.2,3.1,4,5.4c0.7,2.3,1.1,5.3,1.1,8.9h-12.9c0-1-0.1-1.9-0.4-2.7c-0.3-0.8-0.9-1.4-1.8-2
			c-0.9-0.5-2.2-0.9-4-1.2c-1.7-0.2-4.1-0.4-7.1-0.4h-9.6c-2.8,0-5.1,0.1-6.8,0.3s-3,0.7-4,1.5c-0.9,0.8-1.5,2-1.8,3.6
			s-0.5,3.8-0.5,6.5v6c0,2.6,0.1,4.6,0.5,6.1c0.3,1.5,0.9,2.7,1.8,3.5c0.9,0.8,2.2,1.4,3.8,1.6c1.7,0.3,3.8,0.4,6.5,0.4h10.2
			c2.7,0,5-0.1,6.7-0.2c1.7-0.2,3.1-0.5,4-1s1.6-1.2,1.9-2.1c0.3-0.9,0.5-2.1,0.5-3.5h12.9c0,3.5-0.3,6.3-0.9,8.7
			c-0.6,2.3-1.8,4.2-3.6,5.6s-4.4,2.4-7.8,3c-3.4,0.6-7.9,0.9-13.4,0.9h-11.4C138.5,88.9,134.6,88.6,131.4,87.9"/>
		<polygon class="st0" points="242.3,36.7 242.3,47.1 201.5,47.1 201.5,56.7 241.1,56.7 241.1,67.1 201.5,67.1 201.5,78.4 
			242.3,78.4 242.3,88.8 189.1,88.8 189.1,36.7 		"/>
		<path class="st0" d="M292.7,36.7c6.6,0,11.4,1.2,14.6,3.6c3.1,2.4,4.7,6.1,4.7,11.1h-13.4c0-0.8-0.1-1.5-0.3-2
			c-0.2-0.5-0.5-1-1-1.3s-1.1-0.6-2-0.7c-0.8-0.1-1.9-0.2-3.2-0.2h-20.9c-1.7,0-3.2,0.3-4.3,0.9c-1.2,0.6-1.7,1.9-1.7,3.9
			c0,1.1,0.1,1.9,0.4,2.4c0.3,0.6,0.7,1,1.2,1.3s1.2,0.5,1.9,0.5c0.7,0.1,1.6,0.1,2.5,0.2l23,0.9c2.9,0.1,5.5,0.3,7.8,0.7
			c2.2,0.4,4.1,1.1,5.5,2.2c1.5,1.1,2.6,2.6,3.3,4.6c0.8,2,1.1,4.7,1.1,8.2c0,2.8-0.3,5.2-0.9,7.2s-1.6,3.6-3,4.9s-3.2,2.2-5.4,2.8
			c-2.2,0.6-5,0.9-8.2,0.9h-25.8c-3.3,0-6.1-0.3-8.3-0.9c-2.2-0.6-4.1-1.5-5.4-2.7c-1.4-1.2-2.4-2.8-2.9-4.6c-0.6-1.8-0.9-4-0.9-6.5
			H264c0,1.3,0.6,2.4,1.7,3.1c1.2,0.8,2.6,1.2,4.4,1.2H291c2.8,0,4.8-0.3,6.1-1.1c1.4-0.7,2-2.1,2-4.2c0-1-0.1-1.8-0.4-2.4
			c-0.3-0.7-0.7-1.2-1.3-1.7c-0.6-0.5-1.5-0.8-2.6-1.1c-1.1-0.2-2.6-0.4-4.4-0.5l-20-0.8c-3.6-0.2-6.5-0.4-9-0.8c-2.4-0.4-4.4-1-6-2
			c-1.5-1-2.7-2.4-3.3-4.3c-0.7-1.9-1-4.4-1-7.7c0-2.7,0.4-5.1,1.1-7c0.7-1.9,1.8-3.5,3.3-4.7s3.4-2.1,5.8-2.6s5.2-0.8,8.6-0.8
			L292.7,36.7L292.7,36.7z"/>
		<rect x="320.8" y="36.7" class="st0" width="12.5" height="52.1"/>
		<path class="st0" d="M354.5,69c0,1.8,0.2,3.3,0.6,4.5s1,2.1,1.9,2.9c0.9,0.7,2,1.2,3.5,1.5c1.4,0.3,3.2,0.5,5.3,0.5h13.5
			c2,0,3.7-0.1,5.1-0.5c1.4-0.3,2.5-0.8,3.4-1.5c0.8-0.7,1.5-1.7,1.9-2.9c0.4-1.2,0.6-2.7,0.6-4.5V36.7h12.5v33.5
			c0,3.5-0.4,6.4-1.1,8.7c-0.7,2.4-1.9,4.3-3.5,5.7c-1.6,1.5-3.8,2.5-6.6,3.2c-2.7,0.6-6.1,1-10.1,1H363c-3.8,0-7.1-0.3-9.7-1
			c-2.7-0.7-4.8-1.8-6.5-3.3s-2.9-3.4-3.7-5.8c-0.8-2.4-1.1-5.2-1.1-8.5V36.7h12.4V69H354.5z"/>
		<polygon class="st0" points="430.8,36.7 452.3,75.1 474.5,36.7 493.1,36.7 493.1,88.8 480.6,88.8 480.6,50.5 459,88.8 445.5,88.8 
			424,50.5 424,88.8 411.5,88.8 411.5,36.7 		"/>
		<path class="st0" d="M131.6,88c-3.1-0.6-5.6-1.8-7.4-3.4c-1.8-1.7-3.1-3.9-3.9-6.7c-0.8-2.8-1.1-6.4-1.1-10.7v-6.6
			c0-5.1,0.4-9.2,1.2-12.3c0.8-3.1,2.1-5.5,4-7.2s4.4-2.8,7.6-3.4c3.2-0.6,7.2-0.9,12-0.9h11c5.1,0,9.3,0.2,12.6,0.7
			s5.9,1.4,7.8,2.7c1.9,1.3,3.2,3.1,4,5.4c0.7,2.3,1.1,5.3,1.1,8.9h-12.9c0-1-0.1-1.9-0.4-2.7c-0.3-0.8-0.9-1.4-1.8-1.9
			c-0.9-0.5-2.2-0.9-4-1.2s-4.1-0.4-7-0.4h-9.6c-2.8,0-5.1,0.1-6.8,0.3s-3,0.7-4,1.5c-0.9,0.8-1.5,2-1.8,3.6s-0.5,3.8-0.5,6.5v5.7
			c0,2.6,0.1,4.6,0.5,6.1c0.3,1.5,0.9,2.7,1.8,3.5c0.9,0.8,2.2,1.4,3.8,1.6c1.7,0.2,3.8,0.4,6.5,0.4h10.2c2.8,0,5-0.1,6.7-0.2
			s3.1-0.5,4-1s1.6-1.2,1.9-2.1c0.3-0.9,0.5-2.1,0.5-3.5h12.9c0,3.5-0.3,6.3-0.9,8.7c-0.6,2.3-1.8,4.2-3.6,5.6s-4.4,2.4-7.8,3
			c-3.4,0.6-7.9,0.9-13.4,0.9h-11.4C138.6,89,134.7,88.6,131.6,88"/>
		<polygon class="st0" points="242.4,36.9 242.4,47.2 201.6,47.2 201.6,56.8 241.1,56.8 241.1,67.2 201.6,67.2 201.6,78.5 
			242.4,78.5 242.4,88.9 189.2,88.9 189.2,36.9 		"/>
		<path class="st0" d="M292.7,36.9c6.6,0,11.4,1.2,14.5,3.6c3.1,2.4,4.7,6.1,4.7,11.1h-13.4c0-0.8-0.1-1.5-0.3-2
			c-0.2-0.5-0.5-1-1-1.3s-1.1-0.6-2-0.7c-0.8-0.1-1.9-0.2-3.2-0.2h-20.9c-1.7,0-3.2,0.3-4.3,0.9c-1.2,0.6-1.7,1.9-1.7,3.9
			c0,1.1,0.1,1.9,0.4,2.4c0.3,0.6,0.7,1,1.2,1.3s1.2,0.4,1.9,0.5c0.7,0.1,1.6,0.1,2.5,0.2l23,0.9c2.9,0.1,5.5,0.3,7.8,0.7
			c2.2,0.4,4.1,1.1,5.5,2.2c1.5,1.1,2.6,2.6,3.3,4.6c0.8,2,1.1,4.7,1.1,8.2c0,2.8-0.3,5.2-0.9,7.2s-1.6,3.6-3,4.9s-3.2,2.3-5.4,2.9
			c-2.2,0.6-5,0.9-8.2,0.9h-25.8c-3.3,0-6.1-0.3-8.3-0.9c-2.2-0.6-4.1-1.5-5.4-2.7c-1.4-1.2-2.4-2.8-2.9-4.6c-0.6-1.8-0.9-4-0.9-6.5
			h13c0,1.3,0.6,2.4,1.7,3.2c1.1,0.8,2.6,1.2,4.3,1.2h20.8c2.7,0,4.8-0.3,6.1-1c1.4-0.7,2-2.1,2-4.2c0-0.9-0.1-1.8-0.4-2.4
			c-0.3-0.7-0.7-1.2-1.3-1.7c-0.6-0.5-1.5-0.8-2.6-1.1c-1.1-0.2-2.6-0.4-4.4-0.5l-19.9-0.8c-3.5-0.1-6.5-0.4-9-0.7
			c-2.4-0.4-4.4-1-6-2c-1.5-1-2.7-2.4-3.3-4.3c-0.7-1.9-1-4.4-1-7.7c0-2.7,0.4-5.1,1.1-7c0.7-1.9,1.8-3.5,3.3-4.7s3.4-2.1,5.8-2.6
			s5.2-0.8,8.6-0.8h22.9L292.7,36.9L292.7,36.9z"/>
		<rect x="320.8" y="36.9" class="st0" width="12.4" height="52"/>
		<path class="st0" d="M354.4,69.1c0,1.8,0.2,3.3,0.6,4.5s1,2.1,1.9,2.9c0.9,0.7,2,1.2,3.5,1.5c1.4,0.3,3.2,0.5,5.3,0.5h13.5
			c2,0,3.7-0.2,5.1-0.5s2.5-0.8,3.4-1.5c0.8-0.7,1.5-1.7,1.9-2.9c0.4-1.2,0.6-2.7,0.6-4.5V36.8h12.5v33.5c0,3.4-0.3,6.3-1.1,8.7
			c-0.7,2.4-1.9,4.2-3.5,5.7s-3.8,2.5-6.6,3.2c-2.7,0.6-6.1,1-10.1,1H363c-3.8,0-7.1-0.3-9.7-1s-4.8-1.8-6.5-3.3s-2.9-3.4-3.7-5.8
			c-0.8-2.4-1.1-5.2-1.1-8.5V36.8h12.4L354.4,69.1L354.4,69.1z"/>
		<polygon class="st0" points="430.7,36.9 452.1,75.2 474.3,36.9 493,36.9 493,88.9 480.5,88.9 480.5,50.7 458.9,88.9 445.4,88.9 
			423.9,50.7 423.9,88.9 411.4,88.9 411.4,36.9 		"/>
		<path class="st0" d="M0,54.3C0,24.3,24.3,0,54.3,0s54.3,24.3,54.3,54.3s-24.3,54.3-54.3,54.3S0,84.3,0,54.3"/>
		<path class="st1" d="M98.2,47.2c-1.6,0-3.1,0.9-4.3,2.5l-15,19.9c-2.5,3.3-6,5.2-9.7,5.2h-0.1c-3.7,0-7.2-1.9-9.7-5.2l-15-19.9
			c-1.2-1.6-2.7-2.5-4.3-2.5s-3.1,0.9-4.3,2.5l-15,19.9c-2.5,3.3-6,5.2-9.6,5.2c7.7,16.2,24.1,27.4,43.2,27.4
			c26.4,0,47.8-21.4,47.8-47.8c0-1.9-0.1-3.7-0.3-5.5C100.7,47.8,99.5,47.2,98.2,47.2"/>
		<path class="st2" d="M70.3,36.9c-2.8,0-5-2.2-5-5s2.2-5,5-5s5,2.2,5,5C75.3,34.6,73,36.9,70.3,36.9 M54.3,6.5
			C27.9,6.5,6.5,27.9,6.5,54.3c0,4.2,0.6,8.2,1.6,12.1C9,67.1,10,67.5,11,67.5c1.6,0,3.1-0.9,4.3-2.4l15-19.9c2.5-3.3,6-5.2,9.7-5.2
			s7.2,1.9,9.7,5.2l14.5,19.1l0.6,0.8c1.2,1.6,2.7,2.4,4.3,2.4c1.6,0,3.1-0.9,4.3-2.4l0.6-0.8l14.5-19.1c2.5-3.3,6-5.2,9.7-5.2
			c0.6,0,1.2,0.1,1.7,0.2C94,20.7,75.8,6.5,54.3,6.5"/>
	</g>
</g>
<g>
	<path class="st0" d="M515.5,54.1V36.7h17.8v3.5h-13.6v3.2h13.2v3.5h-13.2v7.3h-4.2V54.1z"/>
	<path class="st0" d="M549.9,54.1h-7.6c-4.7,0-6.4-0.9-6.4-5.9c0-2.1-0.1-3.2,0-5.3c0.1-5,1.5-6.2,6.4-6.2h7.6
		c4.2,0,6.2,1.1,6.3,6.2c0,1.8,0,3.7,0,5.3C556.1,53.2,554.5,54.1,549.9,54.1z M548.7,40.5h-5.4c-2.6,0-3.3,0.3-3.3,3.1
		c0,1.2,0,2.3,0,3.8c0,2.8,0.9,3,3.3,3h5.4c2.3,0,3.2-0.1,3.3-3c0-1.5,0-2.7,0-3.8C551.9,40.8,551.2,40.5,548.7,40.5z"/>
	<path class="st0" d="M578.6,54.1h-4.2c0,0,0-1.2,0-2.7c0-1.8-0.7-2.5-3.3-2.5H563v5.2h-4.2V36.7H572c3.1,0,6.1,1.9,6.1,6.1
		c0,3.7-2.4,4.5-2.4,4.5c0,0.1,2.9,0.1,2.9,3.1V54.1z M563,40.8v3.9h8.8c1.8,0,2.3-0.7,2.3-1.8s-0.5-2.1-2.3-2.1
		C571.8,40.8,563,40.8,563,40.8z"/>
	<path class="st0" d="M516,59.8h7.2v18.5c0,4.1,1.5,5.3,5.4,5.3c2.5,0,6.2,0,9.8,0s5.2-1,5.2-5.4V59.8h7.2V79
		c0,7.9-2.9,10.5-10.6,10.6c-3.8,0-9.3,0-13.1,0C519.2,89.5,516,86.9,516,79V59.8z"/>
	<path class="st0" d="M555.2,89.6V59.8h10.7l20.4,20.4V59.8h7.2v29.8H585l-22.6-22.3v22.3C562.4,89.6,555.2,89.6,555.2,89.6z"/>
	<path class="st0" d="M631.6,89.6h-7.2c0,0,0-2.1,0-4.6c0-3-1.2-4.2-5.7-4.2H605v8.9h-7.2V59.8h22.6c5.2,0,10.4,3.2,10.4,10.5
		c0,6.2-4.1,7.7-4.1,7.8c0,0.2,4.9,0.2,4.9,5.3L631.6,89.6L631.6,89.6z M605,66.9v6.7h15.1c3,0,3.9-1.2,3.9-3.1s-0.9-3.6-4-3.6H605z
		"/>
	<path class="st0" d="M635.5,89.6V59.8H666v6h-23.3v5.5h22.6v6h-22.6v6.4H666v6h-30.5V89.6z"/>
	<path class="st0" d="M667.9,89.6l15.4-29.8h11.3L710,89.6h-8.3l-3.6-7.2H680l-3.6,7.2H667.9z M694.8,76.5l-5.6-11.1h-0.4l-5.9,11.1
		H694.8z"/>
	<path class="st0" d="M712.3,89.6V59.8h7.2v23.8h18.4v6H712.3z"/>
</g>
</svg>
