<svg width="252" height="40" viewBox="0 0 252 40" fill="none" xmlns="http://www.w3.org/2000/svg">
<path d="M19.0546 1.00055L17.3205 0L3.91748 7.7384L9.52867 17.3555L19.0546 1.00055Z" fill="white"/>
<path d="M15.7217 12.002H34.642V9.99998L21.3623 2.33337L15.7217 12.002Z" fill="white"/>
<path d="M1.6099 9.07129L0 10V25.3323H11.099L1.6099 9.07129Z" fill="white"/>
<path d="M17.3205 40L15.6047 39.0096L25.1243 22.6648L30.7235 32.2626L17.3205 40Z" fill="white"/>
<path d="M0 30V27.9979H18.9433L13.2962 37.6767L0 30Z" fill="white"/>
<path d="M33.0321 30.9296L34.642 30V14.6686H23.542L33.0321 30.9296Z" fill="white"/>
<path fill-rule="evenodd" clip-rule="evenodd" d="M58.6276 11.9974C62.72 11.9974 65.8975 13.8034 65.8975 17.4614C65.8975 20.1362 64.2066 21.8281 61.6928 22.5589L66.4019 27.9998H60.984L56.7544 22.9474H52.0453V27.9998H47.4043V11.9974H58.6276ZM52.0214 19.5646H58.2852C59.954 19.5646 61.1653 19.1081 61.1653 17.5525C61.1653 15.9987 59.954 15.5413 58.2852 15.5413H52.0214V19.5646Z" fill="white"/>
<path d="M72.9657 21.5997H83.0467V18.1931H72.9657V15.5642H85.196V11.9983H68.3707V27.9998H85.4473V24.4339H72.9657V21.5997Z" fill="white"/>
<path fill-rule="evenodd" clip-rule="evenodd" d="M86.4783 28.0007L94.7533 11.9983H99.8518L108.127 28.0007H103.166L101.658 24.9374H92.8792L91.3706 28.0007H86.4783ZM97.268 15.9526L94.479 21.6218H100.034L97.268 15.9526Z" fill="white"/>
<path d="M114.231 11.9983H109.568V27.9998H124.999V24.2507H114.231V11.9983Z" fill="white"/>
<path d="M126.653 11.9983H131.316V28.0007H126.653V11.9983Z" fill="white"/>
<path d="M132.935 15.7244H139.542V27.9998H144.206V15.7244H150.858V11.9983H132.935V15.7244Z" fill="white"/>
<path d="M161.496 18.9018L166.137 11.9983H171.326L163.805 22.6049V27.9998H159.141V22.6049L151.621 11.9983H156.833L161.496 18.9018Z" fill="white"/>
<path d="M180.662 17.8507L180.577 17.8439C177.768 17.6196 175.953 17.4746 175.953 16.4101C175.953 15.2669 178.216 14.9696 180.09 14.9696C182.582 14.9926 184.731 15.4952 186.514 16.7525L188.869 13.8494C186.674 12.2947 183.519 11.4718 180.09 11.4718C175.016 11.4718 171.312 13.3468 171.312 16.7756C171.312 20.3415 175.632 21.3936 180.388 21.805C183.679 22.0793 184.959 22.4226 184.959 23.4508C184.959 24.502 183.588 25.0055 180.845 25.0055C177.645 25.0055 175.016 24.1136 173.119 22.5138L170.673 25.3939C173.188 27.4052 176.639 28.5254 180.754 28.5254C186.56 28.5254 189.601 26.2849 189.601 22.9933C189.6 19.3133 185.897 18.2842 180.662 17.8507Z" fill="white"/>
<path d="M201.114 24.7312C203.263 24.7312 204.909 24.0004 206.029 22.2856L210.029 24.3428C208.543 26.6974 205.319 28.5264 200.999 28.5264C194.964 28.5264 190.895 25.3958 190.895 20C190.895 14.6042 194.964 11.4728 201.182 11.4728C205.319 11.4728 208.52 13.3478 209.96 15.6333L205.937 17.6906C204.886 16.0438 203.262 15.267 201.114 15.267C197.822 15.267 195.628 16.9358 195.628 19.9991C195.628 23.0624 197.822 24.7312 201.114 24.7312Z" fill="white"/>
<path fill-rule="evenodd" clip-rule="evenodd" d="M218.192 11.9983L209.917 28.0007H214.809L216.318 24.9374H225.097L226.605 28.0007H231.566L223.291 11.9983H218.192ZM217.918 21.6218L220.707 15.9526L223.473 21.6218H217.918Z" fill="white"/>
<path d="M247.432 21.782V11.9983H251.936V27.9998H247.844L237.511 17.4843V27.9998H233.007V11.9983H237.946L247.432 21.782Z" fill="white"/>
</svg>
